<svg width="32" height="32" viewBox="0 0 32 32" fill="none" xmlns="http://www.w3.org/2000/svg">
  <rect width="32" height="32" fill="#0e0e0e"/>
  <path transform="translate(2, 6.67) scale(0.778)" d="M8.38058 23.9663C7.5182 23.9429 6.70933 23.8551 5.80263 23.7942C4.48325 23.7055 3.50475 23.4579 2.32564 23.0241C1.84955 22.8962 1.31009 22.4159 0.997348 22.0524C0.726588 21.7378 0.417705 21.3642 0.269594 20.9627C-0.0214252 20.1739 -0.0741141 19.4593 0.098353 18.61C0.168125 18.2664 0.174688 18.0603 0.440147 17.6542C0.800801 17.1024 1.21318 16.5513 1.67829 16.0845C5.80427 11.9432 9.62025 7.40363 13.4451 2.97384C13.9723 2.36326 14.4481 1.70893 14.9696 1.09391C15.0932 0.948164 15.2491 0.641427 15.4477 0.601086C15.9402 0.501067 16.2925 0.601086 16.9456 0.587182C17.957 0.579917 18.9679 0.654322 19.9651 0.680819C23.9625 0.78698 28.0175 0.496804 31.9955 0.11163C32.4134 0.0711634 33.1958 -0.149968 33.5445 0.17213C34.3116 0.880726 34.2793 2.28862 33.7685 3.13418C33.6272 3.36802 33.2179 3.84741 33.3481 4.14639C31.7269 5.85209 30.1383 7.59332 28.572 9.34721C27.1245 10.9678 25.6091 12.5723 24.2328 14.2522C23.5198 15.1224 22.8008 16.2247 21.8316 16.827C21.3977 17.0967 20.7454 16.9491 20.2749 16.9232C18.7034 16.8369 17.1398 16.6785 15.5646 16.6167C14.7721 16.5856 13.8401 16.6049 13.1835 16.6049C9.69851 16.5431 4.9358 16.9232 2.66611 17.601C1.6924 17.8918 1.39651 19.0333 1.38551 19.9471C1.67829 23.7942 13.0818 22.7437 15.4852 22.6035C17.8887 22.4632 17.3088 22.503 18.0599 22.4611C19.6133 22.3744 21.3399 22.2909 21.3682 21.9025C21.4097 21.3338 21.0339 20.663 20.8932 20.1207C20.8205 19.8407 21.1261 19.6994 21.2288 19.4906C21.4818 18.9764 21.9749 18.4463 22.3436 18.0274C23.6445 16.5496 24.9352 15.0686 26.2274 13.5852C28.6956 10.7517 31.1799 7.95016 33.6731 5.13759C33.8382 5.4905 34.1624 6.01922 34.5267 6.11296C34.7461 6.16942 34.9047 6.11652 35.2215 6.25548C35.5383 6.39444 35.5577 6.47701 35.6851 6.62352C36.5046 7.72559 35.5438 8.76884 34.8556 9.48171C30.8576 13.6226 27.1722 18.0274 23.2236 22.3174C22.8673 22.7326 22.3592 23.7674 21.4074 23.715C20.3533 23.7736 19.8096 23.7865 19.3226 23.8182C15.7543 23.9222 12.0706 24.0662 8.38058 23.9663ZM13.572 8.27949C13.2871 8.91946 13.1242 9.52299 13.0565 10.2185C12.9485 11.3279 14.1009 12.5389 14.9633 13.0285C16.5887 13.9512 18.9869 13.4471 20.5975 12.8208C21.1028 12.6243 21.9153 12.2115 22.1038 11.6396C22.1723 11.4321 21.9544 11.2225 21.7853 11.1568C21.2916 10.9649 20.7072 11.3182 20.1928 11.309C19.5766 11.1568 19.4037 10.3138 19.3703 9.93469C19.3056 9.19879 19.5661 8.39524 19.9523 7.77733C20.2227 7.34467 20.6634 7.00442 21.1128 6.7848C21.4829 6.60386 21.8151 6.59324 22.2228 6.57695C23.0808 6.69782 22.9228 7.35561 23.4848 7.48254C24.3131 7.66958 23.882 6.19632 23.6898 5.83324C23.4116 5.07188 22.3685 4.68878 21.6796 4.49424C20.0266 4.02745 18.11 4.14304 16.5612 4.89827C15.1723 5.57547 14.2889 6.95748 13.572 8.27949Z" fill="#89FE9B"/>
</svg>
